<?xml version="1.0" encoding="UTF-8" standalone="no"?>
<!-- Generator: Adobe Illustrator 10.0, SVG Export Plug-In . SVG Version: 3.0.0 Build 76)  -->
<svg
   xmlns:dc="http://purl.org/dc/elements/1.1/"
   xmlns:cc="http://web.resource.org/cc/"
   xmlns:rdf="http://www.w3.org/1999/02/22-rdf-syntax-ns#"
   xmlns:svg="http://www.w3.org/2000/svg"
   xmlns="http://www.w3.org/2000/svg"
   xmlns:xlink="http://www.w3.org/1999/xlink"
   xmlns:sodipodi="http://inkscape.sourceforge.net/DTD/sodipodi-0.dtd"
   xmlns:inkscape="http://www.inkscape.org/namespaces/inkscape"
   width="348.792"
   height="227.971"
   viewBox="0 0 348.792 227.971"
   overflow="visible"
   enable-background="new 0 0 348.792 227.971"
   xml:space="preserve"
   id="svg2"
   sodipodi:version="0.32"
   inkscape:version="0.43"
   sodipodi:docname="digits.svg"
   sodipodi:docbase="/home/kljensen/Burns/Papers/jensen2006thesis/Body/Images-appc"><metadata
   id="metadata510"><rdf:RDF><cc:Work
       rdf:about=""><dc:format>image/svg+xml</dc:format><dc:type
         rdf:resource="http://purl.org/dc/dcmitype/StillImage" /></cc:Work></rdf:RDF></metadata><defs
   id="defs508">
		
		
		
			
		
			
		
			
		
		
		
		
		
		
		
		
		
		
		
		
		
		
		
		
		
		
		
		
		
		
		
		
		
		
		
		
		
		
		
		
		
		
		
		
		
		
		
		
		
		
		
		
		
		
		
		
		
		
		
		
		
		
		
		
		
		
		
		
		
		
		
		
		
		
		
		
		
		
		
		
		
		
		
		
			
		
			
		
			
		
			
		
			
		
		
		
		
		
		
		
		
		
		
		
		
		
		
		
		
		
		
		
		
		
		
		
		
		
		
		
		
		
		
		
		
		
		
		
		
		
		
		
		
		
		
		
		
		
		
		
		
		
		
		
		
		
		
		
		
		
		
		
		
		
		
		
		
		
		
		
		
		
		
		
		
		
		
		
		
	</defs><sodipodi:namedview
   inkscape:cy="121.61568"
   inkscape:cx="173.17447"
   inkscape:zoom="1.7715393"
   inkscape:window-height="735"
   inkscape:window-width="1024"
   inkscape:pageshadow="2"
   inkscape:pageopacity="0.0"
   borderopacity="1.0"
   bordercolor="#666666"
   pagecolor="#ffffff"
   id="base"
   inkscape:window-x="0"
   inkscape:window-y="6"
   inkscape:current-layer="svg2" />
	<style
   type="text/css"
   id="style4">
	
	
	</style>
	<path
   style="fill:none;stroke:#808080;stroke-width:0.85039997;stroke-miterlimit:10"
   id="path7"
   d="M 76.444,15.472 C 76.444,15.472 82.502,9.264 86.649,8.669 C 91.469,7.977 98.928,8.474 100.255,12.921 C 101.751,17.935 90.087,19.929 90.05,25.336 C 90.026,29.001 96.286,30.179 96.853,33.84 C 97.347,37.026 95.865,40.535 93.452,42.684 C 90.321,45.473 85.637,46.666 81.547,45.745 C 77.127,44.75 71.342,37.242 71.342,37.242"
   stroke-miterlimit="10" /><path
   style="fill:none;stroke:#000000;stroke-width:0.1196;stroke-miterlimit:10"
   id="path9"
   d="M 67.149,27.037 L 67.149,7.538 L 106.147,7.538 L 106.147,46.536 L 67.149,46.536 L 67.149,27.037 z "
   stroke-miterlimit="10" /><path
   style="fill:none;stroke:#000000;stroke-width:0.47819999;stroke-linecap:round;stroke-miterlimit:10;stroke-dasharray:0, 2.2982;stroke-dashoffset:-0.2391"
   id="path11"
   d="M 67.09,46.596 L 8.413,60.199"
   stroke-miterlimit="10" /><path
   style="fill:none;stroke:#000000;stroke-width:0.47819999;stroke-linecap:round;stroke-miterlimit:10;stroke-dasharray:0, 2.2982;stroke-dashoffset:-0.2391"
   id="path13"
   d="M 106.207,46.596 L 164.883,60.199"
   stroke-miterlimit="10" /><path
   style="fill:none;stroke:#000000;stroke-width:0.47819999;stroke-linecap:round;stroke-miterlimit:10;stroke-dasharray:0, 1.3606;stroke-dashoffset:0.6803"
   id="path15"
   d="M 8.413,217.349 L 8.413,59.519 M 15.216,217.349 L 15.216,59.519 M 22.02,217.349 L 22.02,59.519 M 28.822,217.349 L 28.822,59.519 M 35.625,217.349 L 35.625,59.519 M 42.429,217.349 L 42.429,59.519 M 49.231,217.349 L 49.231,59.519 M 56.035,217.349 L 56.035,59.519 M 62.837,217.349 L 62.837,59.519 M 69.641,217.349 L 69.641,59.519 M 76.444,217.349 L 76.444,59.519 M 83.247,217.349 L 83.247,59.519 M 90.05,217.349 L 90.05,59.519 M 96.853,217.349 L 96.853,59.519 M 103.656,217.349 L 103.656,59.519 M 110.459,217.349 L 110.459,59.519 M 117.262,217.349 L 117.262,59.519 M 124.065,217.349 L 124.065,59.519 M 130.868,217.349 L 130.868,59.519 M 137.671,217.349 L 137.671,59.519 M 144.474,217.349 L 144.474,59.519 M 151.277,217.349 L 151.277,59.519 M 158.08,217.349 L 158.08,59.519 M 164.883,217.349 L 164.883,59.519 M 7.733,216.669 L 165.564,216.669 M 7.733,209.866 L 165.564,209.866 M 7.733,203.063 L 165.564,203.063 M 7.733,196.26 L 165.564,196.26 M 7.733,189.457 L 165.564,189.457 M 7.733,182.653 L 165.564,182.653 M 7.733,175.851 L 165.564,175.851 M 7.733,169.047 L 165.564,169.047 M 7.733,162.245 L 165.564,162.245 M 7.733,155.441 L 165.564,155.441 M 7.733,148.638 L 165.564,148.638 M 7.733,141.835 L 165.564,141.835 M 7.733,135.032 L 165.564,135.032 M 7.733,128.229 L 165.564,128.229 M 7.733,121.426 L 165.564,121.426 M 7.733,114.623 L 165.564,114.623 M 7.733,107.82 L 165.564,107.82 M 7.733,101.017 L 165.564,101.017 M 7.733,94.214 L 165.564,94.214 M 7.733,87.411 L 165.564,87.411 M 7.733,80.608 L 165.564,80.608 M 7.733,73.805 L 165.564,73.805 M 7.733,67.002 L 165.564,67.002 M 7.733,60.199 L 165.564,60.199"
   stroke-miterlimit="10" /><text
   id="text17"
   y="65.128403"><tspan
     style="font-size:5.37979984px;font-family:Courier"
     id="tspan19"
     font-size="5.3798"
     y="65.128403"
     x="0">X</tspan></text>
<text
   id="text21"
   y="71.9272"><tspan
     style="font-size:5.37979984px;font-family:Courier"
     id="tspan23"
     font-size="5.3798"
     y="71.9272"
     x="0">Z</tspan></text>
<text
   id="text25"
   y="78.731003"><tspan
     style="font-size:5.37979984px;font-family:Courier"
     id="tspan27"
     font-size="5.3798"
     y="78.731003"
     x="0">B</tspan></text>
<text
   id="text29"
   y="85.502899"><tspan
     style="font-size:5.37979984px;font-family:Courier"
     id="tspan31"
     font-size="5.3798"
     y="85.502899"
     x="0">V</tspan></text>
<text
   id="text33"
   y="92.339401"><tspan
     style="font-size:5.37979984px;font-family:Courier"
     id="tspan35"
     font-size="5.3798"
     y="92.339401"
     x="0">Y</tspan></text>
<text
   id="text37"
   y="99.105499"><tspan
     style="font-size:5.37979984px;font-family:Courier"
     id="tspan39"
     font-size="5.3798"
     y="99.105499"
     x="0">W</tspan></text>
<text
   id="text41"
   y="105.9419"><tspan
     style="font-size:5.37979984px;font-family:Courier"
     id="tspan43"
     font-size="5.3798"
     y="105.9419"
     x="0">T</tspan></text>
<text
   id="text45"
   y="112.751"><tspan
     style="font-size:5.37979984px;font-family:Courier"
     id="tspan47"
     font-size="5.3798"
     y="112.751"
     x="0">S</tspan></text>
<text
   id="text49"
   y="119.5498"><tspan
     style="font-size:5.37979984px;font-family:Courier"
     id="tspan51"
     font-size="5.3798"
     y="119.5498"
     x="0">P</tspan></text>
<text
   id="text53"
   y="126.3535"><tspan
     style="font-size:5.37979984px;font-family:Courier"
     id="tspan55"
     font-size="5.3798"
     y="126.3535"
     x="0">F</tspan></text>
<text
   id="text57"
   y="133.1577"><tspan
     style="font-size:5.37979984px;font-family:Courier"
     id="tspan59"
     font-size="5.3798"
     y="133.1577"
     x="0">M</tspan></text>
<text
   id="text61"
   y="139.9619"><tspan
     style="font-size:5.37979984px;font-family:Courier"
     id="tspan63"
     font-size="5.3798"
     y="139.9619"
     x="0">K</tspan></text>
<text
   id="text65"
   y="146.7603"><tspan
     style="font-size:5.37979984px;font-family:Courier"
     id="tspan67"
     font-size="5.3798"
     y="146.7603"
     x="0">L</tspan></text>
<text
   id="text69"
   y="153.5645"><tspan
     style="font-size:5.37979984px;font-family:Courier"
     id="tspan71"
     font-size="5.3798"
     y="153.5645"
     x="0">I</tspan></text>
<text
   id="text73"
   y="160.36819"><tspan
     style="font-size:5.37979984px;font-family:Courier"
     id="tspan75"
     font-size="5.3798"
     y="160.36819"
     x="0">H</tspan></text>
<text
   id="text77"
   y="167.1777"><tspan
     style="font-size:5.37979984px;font-family:Courier"
     id="tspan79"
     font-size="5.3798"
     y="167.1777"
     x="0">G</tspan></text>
<text
   id="text81"
   y="173.97659"><tspan
     style="font-size:5.37979984px;font-family:Courier"
     id="tspan83"
     font-size="5.3798"
     y="173.97659"
     x="0">E</tspan></text>
<text
   id="text85"
   y="180.4619"><tspan
     style="font-size:5.37979984px;font-family:Courier"
     id="tspan87"
     font-size="5.3798"
     y="180.4619"
     x="0">Q</tspan></text>
<text
   id="text89"
   y="187.5845"><tspan
     style="font-size:5.37979984px;font-family:Courier"
     id="tspan91"
     font-size="5.3798"
     y="187.5845"
     x="0">C</tspan></text>
<text
   id="text93"
   y="194.3828"><tspan
     style="font-size:5.37979984px;font-family:Courier"
     id="tspan95"
     font-size="5.3798"
     y="194.3828"
     x="0">D</tspan></text>
<text
   id="text97"
   y="201.1548"><tspan
     style="font-size:5.37979984px;font-family:Courier"
     id="tspan99"
     font-size="5.3798"
     y="201.1548"
     x="0">N</tspan></text>
<text
   id="text101"
   y="207.9912"><tspan
     style="font-size:5.37979984px;font-family:Courier"
     id="tspan103"
     font-size="5.3798"
     y="207.9912"
     x="0">R</tspan></text>
<text
   id="text105"
   y="214.79491"><tspan
     style="font-size:5.37979984px;font-family:Courier"
     id="tspan107"
     font-size="5.3798"
     y="214.79491"
     x="0">A</tspan></text>
<text
   id="text109"
   x="10.2007"
   y="226.52341"><tspan
     style="font-size:5.37979984px;letter-spacing:3.57800007;font-family:Courier"
     id="tspan111"
     letter-spacing="3.578"
     font-size="5.3798"
     y="226.52341"
     x="10.2007">ARND</tspan></text>
<text
   id="text113"
   x="37.4165"
   y="226.63181"><tspan
     style="font-size:5.37979984px;letter-spacing:3.57800007;font-family:Courier"
     id="tspan115"
     letter-spacing="3.578"
     font-size="5.3798"
     y="226.63181"
     x="37.4165">CQ</tspan></text>
<text
   id="text117"
   x="51.019501"
   y="226.52341"><tspan
     style="font-size:5.37979984px;font-family:Courier"
     id="tspan119"
     font-size="5.3798"
     y="226.52341"
     x="51.019501">E</tspan></text>
<text
   id="text121"
   x="57.8232"
   y="226.63181"><tspan
     style="font-size:5.37979984px;font-family:Courier"
     id="tspan123"
     font-size="5.3798"
     y="226.63181"
     x="57.8232">G</tspan></text>
<text
   id="text125"
   x="64.627403"
   y="226.52341"><tspan
     style="font-size:5.37979984px;letter-spacing:3.57800007;font-family:Courier"
     id="tspan127"
     letter-spacing="3.578"
     font-size="5.3798"
     y="226.52341"
     x="64.627403">HILKMFP</tspan></text>
<text
   id="text129"
   x="112.25"
   y="226.63181"><tspan
     style="font-size:5.37979984px;font-family:Courier"
     id="tspan131"
     font-size="5.3798"
     y="226.63181"
     x="112.25">S</tspan></text>
<text
   id="text133"
   x="119.0537"
   y="226.52341"><tspan
     style="font-size:5.37979984px;font-family:Courier"
     id="tspan135"
     font-size="5.3798"
     y="226.52341"
     x="119.0537">T</tspan></text>
<text
   id="text137"
   x="125.8525"
   y="226.52341"><tspan
     style="font-size:5.37979984px;letter-spacing:3.57800007;font-family:Courier"
     id="tspan139"
     letter-spacing="3.578"
     font-size="5.3798"
     y="226.52341"
     x="125.8525">WYVBZ</tspan></text>
<text
   id="text141"
   x="159.8662"
   y="226.52341"><tspan
     style="font-size:5.37979984px;font-family:Courier"
     id="tspan143"
     font-size="5.3798"
     y="226.52341"
     x="159.8662">X</tspan></text>
<path
   style="fill:none;stroke:#808080;stroke-width:3.40159988;stroke-miterlimit:10"
   id="path145"
   d="M 45.83,92.173 C 45.83,92.173 70.062,67.342 86.648,64.961 C 105.926,62.194 135.764,64.179 141.072,81.969 C 147.056,102.024 100.397,110.001 100.254,131.631 C 100.157,146.288 125.196,151.001 127.466,165.646 C 129.442,178.389 123.513,192.424 113.86,201.021 C 101.338,212.175 82.601,216.952 66.239,213.267 C 48.558,209.285 25.421,179.251 25.421,179.251"
   stroke-miterlimit="10" /><path
   id="path147"
   d="M 47.384,92.076 C 47.384,91.215 46.685,90.516 45.824,90.516 C 44.963,90.516 44.264,91.215 44.264,92.076 C 44.264,92.937 44.963,93.636 45.824,93.636 C 46.685,93.636 47.384,92.937 47.384,92.076 z " /><text
   id="text149"
   x="38.658699"
   y="102.1563"><tspan
     style="font-size:4.7821002px;font-family:Courier"
     id="tspan151"
     font-size="4.7821"
     y="102.1563"
     x="38.658699">(Q,Y)</tspan></text>
<path
   id="path153"
   d="M 88.184,64.956 C 88.184,64.095 87.485,63.396 86.624,63.396 C 85.763,63.396 85.064,64.095 85.064,64.956 C 85.064,65.817 85.763,66.516 86.624,66.516 C 87.485,66.516 88.184,65.817 88.184,64.956 z " /><text
   id="text155"
   x="82.879402"
   y="76.684601"><tspan
     style="font-size:4.7821002px;font-family:Courier"
     id="tspan157"
     font-size="4.7821"
     y="76.684601"
     x="82.879402">(K,X)</tspan></text>
<path
   id="path159"
   d="M 142.664,81.996 C 142.664,81.135 141.965,80.436 141.104,80.436 C 140.243,80.436 139.544,81.135 139.544,81.996 C 139.544,82.857 140.243,83.556 141.104,83.556 C 141.965,83.556 142.664,82.857 142.664,81.996 z " /><text
   id="text161"
   x="147.87891"
   y="83.175301"><tspan
     style="font-size:4.7821002px;font-family:Courier"
     id="tspan163"
     font-size="4.7821"
     y="83.175301"
     x="147.87891">(V,V)</tspan></text>
<path
   id="path165"
   d="M 101.864,131.676 C 101.864,130.815 101.165,130.116 100.304,130.116 C 99.443,130.116 98.744,130.815 98.744,131.676 C 98.744,132.537 99.443,133.236 100.304,133.236 C 101.165,133.236 101.864,132.537 101.864,131.676 z " /><text
   id="text167"
   x="79.1045"
   y="132.8394"><tspan
     style="font-size:4.7821002px;font-family:Courier"
     id="tspan169"
     font-size="4.7821"
     y="132.8394"
     x="79.1045">(F,M)</tspan></text>
<path
   id="path171"
   d="M 128.984,165.756 C 128.984,164.895 128.285,164.196 127.424,164.196 C 126.563,164.196 125.864,164.895 125.864,165.756 C 125.864,166.617 126.563,167.316 127.424,167.316 C 128.285,167.316 128.984,166.617 128.984,165.756 z " /><text
   id="text173"
   x="134.271"
   y="166.8535"><tspan
     style="font-size:4.7821002px;font-family:Courier"
     id="tspan175"
     font-size="4.7821"
     y="166.8535"
     x="134.271">(W,G)</tspan></text>
<path
   id="path177"
   d="M 115.544,201.036 C 115.544,200.175 114.845,199.476 113.984,199.476 C 113.123,199.476 112.424,200.175 112.424,201.036 C 112.424,201.897 113.123,202.596 113.984,202.596 C 114.845,202.596 115.544,201.897 115.544,201.036 z " /><text
   id="text179"
   x="120.2959"
   y="205.998"><tspan
     style="font-size:4.7821002px;font-family:Courier"
     id="tspan181"
     font-size="4.7821"
     y="205.998"
     x="120.2959">(S,N)</tspan></text>
<path
   id="path183"
   d="M 67.784,213.275 C 67.784,212.415 67.085,211.715 66.224,211.715 C 65.363,211.715 64.664,212.414 64.664,213.275 C 64.664,214.136 65.363,214.836 66.224,214.836 C 67.085,214.836 67.784,214.137 67.784,213.275 z " /><text
   id="text185"
   x="61.1064"
   y="203.90331"><tspan
     style="font-size:4.7821002px;font-family:Courier"
     id="tspan187"
     font-size="4.7821"
     y="203.90331"
     x="61.1064">(H,A)</tspan></text>
<path
   id="path189"
   d="M 26.984,179.196 C 26.984,178.335 26.285,177.636 25.424,177.636 C 24.563,177.636 23.864,178.335 23.864,179.196 C 23.864,180.057 24.563,180.756 25.424,180.756 C 26.285,180.756 26.984,180.057 26.984,179.196 z " /><text
   id="text191"
   x="18.252001"
   y="173.8306"><tspan
     style="font-size:4.7821002px;font-family:Courier"
     id="tspan193"
     font-size="4.7821"
     y="173.8306"
     x="18.252001">(N,Q)</tspan></text>
<path
   id="path195"
   d="M 82.039,71.157 L 86.649,64.961 L 79.157,66.835 L 83.018,67.382" /><path
   style="fill:none;stroke:#000000;stroke-width:0.85039997;stroke-miterlimit:10"
   id="path197"
   d="M 45.83,92.177 L 83.018,67.382"
   stroke-miterlimit="10" /><path
   id="path199"
   d="M 133.359,82.281 L 141.075,81.971 L 134.908,77.323 L 136.91,80.67" /><path
   style="fill:none;stroke:#000000;stroke-width:0.85039997;stroke-miterlimit:10"
   id="path201"
   d="M 86.648,64.961 L 136.91,80.669"
   stroke-miterlimit="10" /><path
   id="path203"
   d="M 102.868,124.367 L 100.257,131.635 L 106.882,127.666 L 103.028,128.264" /><path
   style="fill:none;stroke:#000000;stroke-width:0.85039997;stroke-miterlimit:10"
   id="path205"
   d="M 141.075,81.971 L 103.027,128.263"
   stroke-miterlimit="10" /><path
   id="path207"
   d="M 120.896,161.593 L 127.468,165.65 L 124.953,158.348 L 124.742,162.243" /><path
   style="fill:none;stroke:#000000;stroke-width:0.85039997;stroke-miterlimit:10"
   id="path209"
   d="M 100.256,131.635 L 124.741,162.242"
   stroke-miterlimit="10" /><path
   id="path211"
   d="M 114.05,193.305 L 113.864,201.025 L 118.899,195.169 L 115.431,196.952" /><path
   style="fill:none;stroke:#000000;stroke-width:0.85039997;stroke-miterlimit:10"
   id="path213"
   d="M 127.467,165.649 L 115.43,196.952"
   stroke-miterlimit="10" /><path
   id="path215"
   d="M 72.639,208.94 L 66.242,213.266 L 73.932,213.971 L 70.468,212.18" /><path
   style="fill:none;stroke:#000000;stroke-width:0.85039997;stroke-miterlimit:10"
   id="path217"
   d="M 113.864,201.025 L 70.468,212.181"
   stroke-miterlimit="10" /><path
   id="path219"
   d="M 32.673,181.913 L 25.423,179.252 L 29.347,185.903 L 28.775,182.046" /><path
   style="fill:none;stroke:#000000;stroke-width:0.85039997;stroke-miterlimit:10"
   id="path221"
   d="M 66.242,213.267 L 28.776,182.046"
   stroke-miterlimit="10" /><path
   style="fill:none;stroke:#000000;stroke-width:0.1196;stroke-miterlimit:10"
   id="path239"
   d="M 210.392,27.037 L 210.392,7.538 L 249.39,7.538 L 249.39,46.536 L 210.392,46.536 L 210.392,27.037 z "
   stroke-miterlimit="10" /><path
   style="fill:none;stroke:#bfbfbf;stroke-width:0.85039997;stroke-miterlimit:10"
   id="path241"
   d="M 243.497,13.431 C 243.497,13.431 233.651,6.414 229.891,9.18 C 226.526,11.654 226.417,19.678 229.891,21.935 C 234.453,24.899 240.227,12.707 245.198,15.132 C 249.36,17.162 249.257,23.979 248.599,28.738 C 247.957,33.39 245.431,37.664 241.796,40.643 C 237.52,44.149 232.013,45.16 226.489,45.745 C 221.217,46.304 211.182,44.044 211.182,44.044"
   stroke-miterlimit="10" /><path
   style="fill:none;stroke:#000000;stroke-width:0.1196;stroke-miterlimit:10"
   id="path259"
   d="M 288.627,27.037 L 288.627,7.538 L 327.625,7.538 L 327.625,46.536 L 288.627,46.536 L 288.627,27.037 z "
   stroke-miterlimit="10" /><path
   style="fill:none;stroke:#808080;stroke-width:0.85039997;stroke-miterlimit:10"
   id="path261"
   d="M 314.929,8.329 C 314.929,8.329 302.287,7.253 299.622,11.731 C 297.518,15.266 299.284,21.991 303.023,23.636 C 308.766,26.162 313.948,13.29 320.031,15.132 C 324.418,16.46 326.459,22.367 326.834,27.037 C 327.231,31.986 325.355,37.256 321.732,40.643 C 317.304,44.782 310.814,45.193 304.724,45.746 C 299.442,46.225 289.417,44.045 289.417,44.045"
   stroke-miterlimit="10" /><path
   style="fill:none;stroke:#000000;stroke-width:0.47819999;stroke-linecap:round;stroke-miterlimit:10;stroke-dasharray:0, 2.3555;stroke-dashoffset:-0.2391"
   id="path263"
   d="M 210.332,46.596 L 190.52,60.199"
   stroke-miterlimit="10" /><path
   style="fill:none;stroke:#000000;stroke-width:0.47819999;stroke-linecap:round;stroke-miterlimit:10;stroke-dasharray:0, 2.2909;stroke-dashoffset:-0.2391"
   id="path265"
   d="M 288.567,46.596 L 190.52,60.199"
   stroke-miterlimit="10" /><path
   style="fill:none;stroke:#000000;stroke-width:0.47819999;stroke-linecap:round;stroke-miterlimit:10;stroke-dasharray:0, 2.2792;stroke-dashoffset:-0.2391"
   id="path267"
   d="M 249.449,46.596 L 346.989,60.199"
   stroke-miterlimit="10" /><path
   style="fill:none;stroke:#000000;stroke-width:0.47819999;stroke-linecap:round;stroke-miterlimit:10;stroke-dasharray:0, 2.3138;stroke-dashoffset:-0.2391"
   id="path269"
   d="M 327.685,46.596 L 346.99,60.199"
   stroke-miterlimit="10" /><path
   style="fill:none;stroke:#000000;stroke-width:0.47819999;stroke-linecap:round;stroke-miterlimit:10;stroke-dasharray:0, 1.3606;stroke-dashoffset:0.6803"
   id="path271"
   d="M 190.52,217.349 L 190.52,59.519 M 197.322,217.349 L 197.322,59.519 M 204.125,217.349 L 204.125,59.519 M 210.929,217.349 L 210.929,59.519 M 217.731,217.349 L 217.731,59.519 M 224.534,217.349 L 224.534,59.519 M 231.338,217.349 L 231.338,59.519 M 238.141,217.349 L 238.141,59.519 M 244.943,217.349 L 244.943,59.519 M 251.747,217.349 L 251.747,59.519 M 258.55,217.349 L 258.55,59.519 M 265.353,217.349 L 265.353,59.519 M 272.156,217.349 L 272.156,59.519 M 278.959,217.349 L 278.959,59.519 M 285.762,217.349 L 285.762,59.519 M 292.564,217.349 L 292.564,59.519 M 299.368,217.349 L 299.368,59.519 M 306.171,217.349 L 306.171,59.519 M 312.974,217.349 L 312.974,59.519 M 319.777,217.349 L 319.777,59.519 M 326.58,217.349 L 326.58,59.519 M 333.383,217.349 L 333.383,59.519 M 340.187,217.349 L 340.187,59.519 M 346.989,217.349 L 346.989,59.519 M 189.839,216.669 L 347.67,216.669 M 189.839,209.866 L 347.67,209.866 M 189.839,203.063 L 347.67,203.063 M 189.839,196.26 L 347.67,196.26 M 189.839,189.457 L 347.67,189.457 M 189.839,182.654 L 347.67,182.654 M 189.839,175.851 L 347.67,175.851 M 189.839,169.047 L 347.67,169.047 M 189.839,162.245 L 347.67,162.245 M 189.839,155.441 L 347.67,155.441 M 189.839,148.638 L 347.67,148.638 M 189.839,141.835 L 347.67,141.835 M 189.839,135.032 L 347.67,135.032 M 189.839,128.229 L 347.67,128.229 M 189.839,121.426 L 347.67,121.426 M 189.839,114.623 L 347.67,114.623 M 189.839,107.82 L 347.67,107.82 M 189.839,101.017 L 347.67,101.017 M 189.839,94.214 L 347.67,94.214 M 189.839,87.411 L 347.67,87.411 M 189.839,80.608 L 347.67,80.608 M 189.839,73.805 L 347.67,73.805 M 189.839,67.002 L 347.67,67.002 M 189.839,60.199 L 347.67,60.199"
   stroke-miterlimit="10" /><text
   id="text273"
   x="182.1064"
   y="65.128403"><tspan
     style="font-size:5.37979984px;font-family:Courier"
     id="tspan275"
     font-size="5.3798"
     y="65.128403"
     x="182.1064">X</tspan></text>
<text
   id="text277"
   x="182.1064"
   y="71.9272"><tspan
     style="font-size:5.37979984px;font-family:Courier"
     id="tspan279"
     font-size="5.3798"
     y="71.9272"
     x="182.1064">Z</tspan></text>
<text
   id="text281"
   x="182.1064"
   y="78.7314"><tspan
     style="font-size:5.37979984px;font-family:Courier"
     id="tspan283"
     font-size="5.3798"
     y="78.7314"
     x="182.1064">B</tspan></text>
<text
   id="text285"
   x="182.1064"
   y="85.502899"><tspan
     style="font-size:5.37979984px;font-family:Courier"
     id="tspan287"
     font-size="5.3798"
     y="85.502899"
     x="182.1064">V</tspan></text>
<text
   id="text289"
   x="182.1064"
   y="92.339401"><tspan
     style="font-size:5.37979984px;font-family:Courier"
     id="tspan291"
     font-size="5.3798"
     y="92.339401"
     x="182.1064">Y</tspan></text>
<text
   id="text293"
   x="182.1064"
   y="99.105499"><tspan
     style="font-size:5.37979984px;font-family:Courier"
     id="tspan295"
     font-size="5.3798"
     y="99.105499"
     x="182.1064">W</tspan></text>
<text
   id="text297"
   x="182.1064"
   y="105.9419"><tspan
     style="font-size:5.37979984px;font-family:Courier"
     id="tspan299"
     font-size="5.3798"
     y="105.9419"
     x="182.1064">T</tspan></text>
<text
   id="text301"
   x="182.1064"
   y="112.751"><tspan
     style="font-size:5.37979984px;font-family:Courier"
     id="tspan303"
     font-size="5.3798"
     y="112.751"
     x="182.1064">S</tspan></text>
<text
   id="text305"
   x="182.1064"
   y="119.5498"><tspan
     style="font-size:5.37979984px;font-family:Courier"
     id="tspan307"
     font-size="5.3798"
     y="119.5498"
     x="182.1064">P</tspan></text>
<text
   id="text309"
   x="182.1064"
   y="126.354"><tspan
     style="font-size:5.37979984px;font-family:Courier"
     id="tspan311"
     font-size="5.3798"
     y="126.354"
     x="182.1064">F</tspan></text>
<text
   id="text313"
   x="182.1064"
   y="133.1577"><tspan
     style="font-size:5.37979984px;font-family:Courier"
     id="tspan315"
     font-size="5.3798"
     y="133.1577"
     x="182.1064">M</tspan></text>
<text
   id="text317"
   x="182.1064"
   y="139.9619"><tspan
     style="font-size:5.37979984px;font-family:Courier"
     id="tspan319"
     font-size="5.3798"
     y="139.9619"
     x="182.1064">K</tspan></text>
<text
   id="text321"
   x="182.1064"
   y="146.7603"><tspan
     style="font-size:5.37979984px;font-family:Courier"
     id="tspan323"
     font-size="5.3798"
     y="146.7603"
     x="182.1064">L</tspan></text>
<text
   id="text325"
   x="182.1064"
   y="153.5645"><tspan
     style="font-size:5.37979984px;font-family:Courier"
     id="tspan327"
     font-size="5.3798"
     y="153.5645"
     x="182.1064">I</tspan></text>
<text
   id="text329"
   x="182.1064"
   y="160.36819"><tspan
     style="font-size:5.37979984px;font-family:Courier"
     id="tspan331"
     font-size="5.3798"
     y="160.36819"
     x="182.1064">H</tspan></text>
<text
   id="text333"
   x="182.1064"
   y="167.1777"><tspan
     style="font-size:5.37979984px;font-family:Courier"
     id="tspan335"
     font-size="5.3798"
     y="167.1777"
     x="182.1064">G</tspan></text>
<text
   id="text337"
   x="182.1064"
   y="173.97659"><tspan
     style="font-size:5.37979984px;font-family:Courier"
     id="tspan339"
     font-size="5.3798"
     y="173.97659"
     x="182.1064">E</tspan></text>
<text
   id="text341"
   x="182.1064"
   y="180.4619"><tspan
     style="font-size:5.37979984px;font-family:Courier"
     id="tspan343"
     font-size="5.3798"
     y="180.4619"
     x="182.1064">Q</tspan></text>
<text
   id="text345"
   x="182.1064"
   y="187.5845"><tspan
     style="font-size:5.37979984px;font-family:Courier"
     id="tspan347"
     font-size="5.3798"
     y="187.5845"
     x="182.1064">C</tspan></text>
<text
   id="text349"
   x="182.1064"
   y="194.3828"><tspan
     style="font-size:5.37979984px;font-family:Courier"
     id="tspan351"
     font-size="5.3798"
     y="194.3828"
     x="182.1064">D</tspan></text>
<text
   id="text353"
   x="182.1064"
   y="201.1548"><tspan
     style="font-size:5.37979984px;font-family:Courier"
     id="tspan355"
     font-size="5.3798"
     y="201.1548"
     x="182.1064">N</tspan></text>
<text
   id="text357"
   x="182.1064"
   y="207.9912"><tspan
     style="font-size:5.37979984px;font-family:Courier"
     id="tspan359"
     font-size="5.3798"
     y="207.9912"
     x="182.1064">R</tspan></text>
<text
   id="text361"
   x="182.1064"
   y="214.79491"><tspan
     style="font-size:5.37979984px;font-family:Courier"
     id="tspan363"
     font-size="5.3798"
     y="214.79491"
     x="182.1064">A</tspan></text>
<text
   id="text365"
   x="192.30659"
   y="226.52341"><tspan
     style="font-size:5.37979984px;letter-spacing:3.57800007;font-family:Courier"
     id="tspan367"
     letter-spacing="3.578"
     font-size="5.3798"
     y="226.52341"
     x="192.30659">ARND</tspan></text>
<text
   id="text369"
   x="219.51759"
   y="226.63181"><tspan
     style="font-size:5.37979984px;letter-spacing:3.57800007;font-family:Courier"
     id="tspan371"
     letter-spacing="3.578"
     font-size="5.3798"
     y="226.63181"
     x="219.51759">CQ</tspan></text>
<text
   id="text373"
   x="233.125"
   y="226.52341"><tspan
     style="font-size:5.37979984px;font-family:Courier"
     id="tspan375"
     font-size="5.3798"
     y="226.52341"
     x="233.125">E</tspan></text>
<text
   id="text377"
   x="239.9297"
   y="226.63181"><tspan
     style="font-size:5.37979984px;font-family:Courier"
     id="tspan379"
     font-size="5.3798"
     y="226.63181"
     x="239.9297">G</tspan></text>
<text
   id="text381"
   x="246.7334"
   y="226.52341"><tspan
     style="font-size:5.37979984px;letter-spacing:3.57800007;font-family:Courier"
     id="tspan383"
     letter-spacing="3.578"
     font-size="5.3798"
     y="226.52341"
     x="246.7334">HILKMFP</tspan></text>
<text
   id="text385"
   x="294.3555"
   y="226.63181"><tspan
     style="font-size:5.37979984px;font-family:Courier"
     id="tspan387"
     font-size="5.3798"
     y="226.63181"
     x="294.3555">S</tspan></text>
<text
   id="text389"
   x="301.1543"
   y="226.52341"><tspan
     style="font-size:5.37979984px;letter-spacing:3.57800007;font-family:Courier"
     id="tspan391"
     letter-spacing="3.578"
     font-size="5.3798"
     y="226.52341"
     x="301.1543">TWYVBZX</tspan></text>
<path
   style="fill:#ffffff;stroke:#808080;stroke-width:0.85039997;stroke-miterlimit:10"
   id="path393"
   d="M 218.836,158.843 L 218.836,142.26 L 320.711,142.26 L 320.711,175.425 L 218.836,175.425 L 218.836,158.843 z "
   stroke-miterlimit="10" /><text
   id="text395"
   x="258.5488"
   y="153.68311"><tspan
     style="font-size:4.7821002px;font-family:Courier"
     id="tspan397"
     font-size="4.7821"
     y="153.68311"
     x="258.5488">VVKXKPBYXLYDIAAR</tspan></text>
<text
   id="text399"
   x="258.5488"
   y="160.4873"><tspan
     style="font-size:4.7821002px;font-family:Courier"
     id="tspan401"
     font-size="4.7821"
     y="160.4873"
     x="258.5488">.......::..:::::</tspan></text>
<text
   id="text403"
   x="258.5488"
   y="167.2588"><tspan
     style="font-size:4.7821002px;font-family:Courier"
     id="tspan405"
     font-size="4.7821"
     y="167.2588"
     x="258.5488">SXEBHFYYXKVDIAAR</tspan></text>
<path
   style="fill:none;stroke:#808080;stroke-width:3.40159988;stroke-miterlimit:10"
   id="path439"
   d="M 295.967,63.601 C 295.967,63.601 245.401,59.297 234.739,77.207 C 226.321,91.35 233.386,118.248 248.344,124.828 C 271.317,134.933 292.043,83.446 316.375,90.813 C 333.92,96.126 342.086,119.755 343.587,138.434 C 345.178,158.23 337.67,179.31 323.178,192.859 C 305.469,209.414 279.508,211.06 255.148,213.268 C 234.019,215.183 193.92,206.464 193.92,206.464"
   stroke-miterlimit="10" /><path
   id="path441"
   d="M 297.464,63.516 C 297.464,62.655 296.765,61.956 295.904,61.956 C 295.043,61.956 294.343,62.655 294.343,63.516 C 294.343,64.377 295.042,65.076 295.904,65.076 C 296.765,65.076 297.464,64.377 297.464,63.516 z " /><path
   id="path443"
   d="M 236.264,77.196 C 236.264,76.335 235.566,75.636 234.704,75.636 C 233.842,75.636 233.143,76.335 233.143,77.196 C 233.143,78.057 233.842,78.756 234.704,78.756 C 235.566,78.756 236.264,78.057 236.264,77.196 z " /><path
   id="path445"
   d="M 249.944,124.716 C 249.944,123.855 249.245,123.156 248.383,123.156 C 247.521,123.156 246.823,123.855 246.823,124.716 C 246.823,125.577 247.521,126.276 248.383,126.276 C 249.245,126.276 249.944,125.577 249.944,124.716 z " /><path
   id="path447"
   d="M 317.864,90.875 C 317.864,90.014 317.165,89.315 316.303,89.315 C 315.441,89.315 314.743,90.014 314.743,90.875 C 314.743,91.736 315.441,92.435 316.303,92.435 C 317.165,92.435 317.864,91.737 317.864,90.875 z " /><path
   id="path449"
   d="M 345.224,138.396 C 345.224,137.535 344.526,136.836 343.664,136.836 C 342.802,136.836 342.103,137.535 342.103,138.396 C 342.103,139.257 342.802,139.956 343.664,139.956 C 344.526,139.956 345.224,139.257 345.224,138.396 z " /><path
   id="path451"
   d="M 324.824,192.875 C 324.824,192.014 324.125,191.315 323.263,191.315 C 322.401,191.315 321.703,192.014 321.703,192.875 C 321.703,193.736 322.401,194.435 323.263,194.435 C 324.125,194.435 324.824,193.737 324.824,192.875 z " /><path
   id="path453"
   d="M 256.664,213.275 C 256.664,212.415 255.965,211.715 255.103,211.715 C 254.243,211.715 253.543,212.414 253.543,213.275 C 253.543,214.136 254.242,214.836 255.103,214.836 C 255.965,214.836 256.664,214.137 256.664,213.275 z " /><path
   id="path455"
   d="M 195.464,206.556 C 195.464,205.695 194.765,204.996 193.904,204.996 C 193.043,204.996 192.343,205.694 192.343,206.556 C 192.343,207.418 193.042,208.117 193.904,208.117 C 194.765,208.116 195.464,207.417 195.464,206.556 z " /><path
   style="fill:none;stroke:#bfbfbf;stroke-width:3.40159988;stroke-miterlimit:10"
   id="path457"
   d="M 323.179,84.01 C 323.179,84.01 283.799,55.942 268.754,67.002 C 255.292,76.899 254.86,108.995 268.754,118.025 C 287,129.882 310.097,81.114 329.982,90.813 C 346.631,98.934 346.214,126.203 343.588,145.237 C 341.021,163.847 330.913,180.94 316.376,192.859 C 299.269,206.882 277.244,210.927 255.148,213.268 C 234.057,215.502 193.92,206.464 193.92,206.464"
   stroke-miterlimit="10" /><path
   id="path459"
   d="M 324.824,83.916 C 324.824,83.055 324.125,82.356 323.263,82.356 C 322.401,82.356 321.703,83.055 321.703,83.916 C 321.703,84.777 322.401,85.476 323.263,85.476 C 324.125,85.476 324.824,84.777 324.824,83.916 z " /><path
   id="path461"
   d="M 270.344,67.116 C 270.344,66.255 269.645,65.556 268.784,65.556 C 267.923,65.556 267.223,66.255 267.223,67.116 C 267.223,67.977 267.922,68.676 268.784,68.676 C 269.645,68.676 270.344,67.977 270.344,67.116 z " /><path
   id="path463"
   d="M 270.344,117.996 C 270.344,117.135 269.645,116.436 268.784,116.436 C 267.923,116.436 267.223,117.135 267.223,117.996 C 267.223,118.857 267.922,119.556 268.784,119.556 C 269.645,119.556 270.344,118.857 270.344,117.996 z " /><path
   id="path465"
   d="M 331.544,90.875 C 331.544,90.014 330.845,89.315 329.984,89.315 C 329.123,89.315 328.423,90.014 328.423,90.875 C 328.423,91.736 329.122,92.435 329.984,92.435 C 330.845,92.436 331.544,91.737 331.544,90.875 z " /><path
   id="path467"
   d="M 345.224,145.355 C 345.224,144.494 344.526,143.795 343.664,143.795 C 342.802,143.795 342.103,144.494 342.103,145.355 C 342.103,146.216 342.802,146.915 343.664,146.915 C 344.526,146.915 345.224,146.217 345.224,145.355 z " /><path
   id="path469"
   d="M 317.864,192.875 C 317.864,192.014 317.165,191.315 316.303,191.315 C 315.441,191.315 314.743,192.014 314.743,192.875 C 314.743,193.736 315.441,194.435 316.303,194.435 C 317.165,194.435 317.864,193.737 317.864,192.875 z " /><path
   id="path471"
   d="M 256.664,213.275 C 256.664,212.415 255.965,211.715 255.103,211.715 C 254.243,211.715 253.543,212.414 253.543,213.275 C 253.543,214.136 254.242,214.836 255.103,214.836 C 255.965,214.836 256.664,214.137 256.664,213.275 z " /><path
   id="path473"
   d="M 195.464,206.556 C 195.464,205.695 194.765,204.996 193.904,204.996 C 193.043,204.996 192.343,205.694 192.343,206.556 C 192.343,207.418 193.042,208.117 193.904,208.117 C 194.765,208.116 195.464,207.417 195.464,206.556 z " /><path
   style="fill:none;stroke:#000000;stroke-width:1.70079994;stroke-linecap:round;stroke-miterlimit:10"
   id="path475"
   d="M 296.646,64.11 L 297.327,64.621"
   stroke-miterlimit="10" /><path
   style="fill:none;stroke:#000000;stroke-width:0.85039997;stroke-miterlimit:10"
   id="path477"
   d="M 296.646,64.11 L 323.181,84.012"
   stroke-miterlimit="10" /><path
   style="fill:none;stroke:#000000;stroke-width:1.70079994;stroke-linecap:round;stroke-miterlimit:10"
   id="path479"
   d="M 235.555,76.964 L 236.369,76.72"
   stroke-miterlimit="10" /><path
   style="fill:none;stroke:#000000;stroke-width:0.85039997;stroke-miterlimit:10"
   id="path481"
   d="M 235.555,76.964 L 268.755,67.003"
   stroke-miterlimit="10" /><path
   style="fill:none;stroke:#000000;stroke-width:1.70079994;stroke-linecap:round;stroke-miterlimit:10"
   id="path483"
   d="M 249.154,124.562 L 249.961,124.293"
   stroke-miterlimit="10" /><path
   style="fill:none;stroke:#000000;stroke-width:0.85039997;stroke-miterlimit:10"
   id="path485"
   d="M 249.154,124.562 L 268.755,118.027"
   stroke-miterlimit="10" /><path
   style="fill:none;stroke:#000000;stroke-width:1.70079994;stroke-linecap:round;stroke-miterlimit:10"
   id="path487"
   d="M 317.228,90.816 L 318.079,90.816"
   stroke-miterlimit="10" /><path
   style="fill:none;stroke:#000000;stroke-width:0.85039997;stroke-miterlimit:10"
   id="path489"
   d="M 317.228,90.816 L 329.986,90.816"
   stroke-miterlimit="10" /><path
   style="fill:none;stroke:#000000;stroke-width:1.70079994;stroke-linecap:round;stroke-miterlimit:10"
   id="path491"
   d="M 343.588,139.284 L 343.588,140.134"
   stroke-miterlimit="10" /><path
   style="fill:none;stroke:#000000;stroke-width:0.85039997;stroke-miterlimit:10"
   id="path493"
   d="M 343.588,139.284 L 343.588,145.238"
   stroke-miterlimit="10" /><path
   style="fill:none;stroke:#000000;stroke-width:1.70079994;stroke-linecap:round;stroke-miterlimit:10"
   id="path495"
   d="M 322.331,192.86 L 321.48,192.86"
   stroke-miterlimit="10" /><path
   style="fill:none;stroke:#000000;stroke-width:0.85039997;stroke-miterlimit:10"
   id="path497"
   d="M 322.331,192.86 L 316.377,192.86"
   stroke-miterlimit="10" /><path
   style="fill:none;stroke:#000000;stroke-width:1.70079994;stroke-linecap:round;stroke-miterlimit:10"
   id="path499"
   d="M 255.146,212.416 L 255.146,211.566"
   stroke-miterlimit="10" /><path
   style="fill:none;stroke:#000000;stroke-width:0.85039997;stroke-miterlimit:10"
   id="path501"
   d="M 255.146,212.416 L 255.146,213.267"
   stroke-miterlimit="10" /><path
   style="fill:none;stroke:#000000;stroke-width:1.70079994;stroke-linecap:round;stroke-miterlimit:10"
   id="path503"
   d="M 193.921,205.618 L 193.921,204.767"
   stroke-miterlimit="10" /><path
   style="fill:none;stroke:#000000;stroke-width:0.85039997;stroke-miterlimit:10"
   id="path505"
   d="M 193.921,205.618 L 193.921,206.468"
   stroke-miterlimit="10" />
<text
   xml:space="preserve"
   style="font-size:6px;font-style:normal;font-variant:normal;font-weight:normal;font-stretch:normal;text-align:start;line-height:100%;writing-mode:lr-tb;text-anchor:start;fill:#000000;fill-opacity:1;stroke:none;stroke-width:1pt;stroke-linecap:butt;stroke-linejoin:miter;stroke-opacity:1;font-family:Verdana"
   x="217.32512"
   y="5.5655437"
   id="text2059"
   sodipodi:linespacing="100%"><tspan
     sodipodi:role="line"
     id="tspan2061"
     x="217.32512"
     y="5.5655437">writer 1</tspan></text>
<text
   sodipodi:linespacing="100%"
   id="text2063"
   y="5.5655437"
   x="296.69528"
   style="font-size:6.00000018;font-style:normal;font-variant:normal;font-weight:normal;font-stretch:normal;text-align:start;line-height:100%;writing-mode:lr;text-anchor:start;fill:#000000;fill-opacity:1;stroke:none;stroke-width:1pt;stroke-linecap:butt;stroke-linejoin:miter;stroke-opacity:1;font-family:Verdana"
   xml:space="preserve"><tspan
     sodipodi:role="line"
     id="tspan2067"
     x="296.69528"
     y="5.5655437">writer 2</tspan></text>
<use
   x="0"
   y="0"
   xlink:href="#text2059"
   id="use2069"
   transform="translate(8.503938,147.401)"
   width="348.79199"
   height="227.97099" /><use
   x="0"
   y="0"
   xlink:href="#text2063"
   id="use2071"
   transform="translate(-70.86623,161.574)"
   width="348.79199"
   height="227.97099" /></svg>