<?xml version="1.0" encoding="UTF-8" standalone="no"?>
<!-- Generator: Adobe Illustrator 10.0, SVG Export Plug-In . SVG Version: 3.0.0 Build 76)  -->
<svg
   xmlns:dc="http://purl.org/dc/elements/1.1/"
   xmlns:cc="http://web.resource.org/cc/"
   xmlns:rdf="http://www.w3.org/1999/02/22-rdf-syntax-ns#"
   xmlns:svg="http://www.w3.org/2000/svg"
   xmlns="http://www.w3.org/2000/svg"
   xmlns:sodipodi="http://inkscape.sourceforge.net/DTD/sodipodi-0.dtd"
   xmlns:inkscape="http://www.inkscape.org/namespaces/inkscape"
   width="232.568"
   height="233.325"
   viewBox="0 0 232.568 233.325"
   overflow="visible"
   enable-background="new 0 0 232.568 233.325"
   xml:space="preserve"
   id="svg2"
   sodipodi:version="0.32"
   inkscape:version="0.43"
   sodipodi:docname="voice.svg"
   sodipodi:docbase="/home/kljensen/Burns/Papers/jensen2006thesis/Body/Images-appc"><metadata
   id="metadata118"><rdf:RDF><cc:Work
       rdf:about=""><dc:format>image/svg+xml</dc:format><dc:type
         rdf:resource="http://purl.org/dc/dcmitype/StillImage" /></cc:Work></rdf:RDF></metadata><defs
   id="defs116">
		
		
		
		
		
		
		
		
		
		
		
		
		
		
		
		
		
		
		
		
		
		
			
		
			
		
			
		
			
		
			
		
			
		
		
		
		
		
		
		
		
	</defs><sodipodi:namedview
   inkscape:cy="117.13445"
   inkscape:cx="116.28439"
   inkscape:zoom="1.7439781"
   inkscape:window-height="587"
   inkscape:window-width="809"
   inkscape:pageshadow="2"
   inkscape:pageopacity="0.0"
   borderopacity="1.0"
   bordercolor="#666666"
   pagecolor="#ffffff"
   id="base"
   inkscape:window-x="6"
   inkscape:window-y="48"
   inkscape:current-layer="svg2" />
	<style
   type="text/css"
   id="style4">
	
	
	</style>
	<path
   style="fill:none;stroke:#000000;stroke-width:0.6376;stroke-linecap:square;stroke-miterlimit:10"
   id="path7"
   d="M 15.35,25.919 L 15.669,25.919"
   stroke-miterlimit="10" /><path
   style="fill:none;stroke:#000000;stroke-width:0.6376;stroke-miterlimit:10"
   id="path9"
   d="M 15.35,25.919 L 196.767,25.919 M 15.35,48.596 L 15.35,3.242"
   stroke-miterlimit="10" /><path
   style="fill:none;stroke:#000000;stroke-width:0.6376;stroke-miterlimit:10"
   id="path11"
   d="M 15.35,3.242 L 12.641,3.242"
   stroke-miterlimit="10" /><text
   id="text13"
   x="5.2631998"
   y="27.971201"><tspan
     style="font-size:6.37610006px;font-family:CMR8"
     id="tspan15"
     font-size="6.3761"
     y="27.971201"
     x="5.2631998">0</tspan></text>
<text
   id="text17"
   x="5.2631998"
   y="5.2982998"><tspan
     style="font-size:6.37610006px;font-family:CMR8"
     id="tspan19"
     font-size="6.3761"
     y="5.2982998"
     x="5.2631998">1</tspan></text>
<path
   style="fill:none;stroke:#000000;stroke-width:0.6376;stroke-miterlimit:10"
   id="path21"
   d="M 15.35,48.596 L 12.641,48.596"
   stroke-miterlimit="10" /><text
   id="text23"
   y="50.319801"><tspan
     style="font-size:6.37610006px;font-family:CMSY8"
     id="tspan25"
     font-size="6.3761"
     y="50.319801"
     x="0"> </tspan></text>
<text
   id="text27"
   x="5.27"
   y="50.319801"><tspan
     style="font-size:6.37610006px;font-family:CMR8"
     id="tspan29"
     font-size="6.3761"
     y="50.319801"
     x="5.27">1</tspan></text>
<path
   style="fill:none;stroke:#000000;stroke-width:0.22679999;stroke-miterlimit:10"
   id="path31"
   d="M 37.231,35.575 L 37.458,23.81 L 37.685,14.93 L 37.912,8.789 L 38.139,5.238 L 38.366,11.823 L 38.593,19.075 L 38.82,19.37 L 39.047,14.34 L 39.274,10.122 L 39.501,8.126 L 39.728,7.827 L 39.955,12.122 L 40.182,19.37 L 40.409,20.481 L 40.636,19.075 L 40.863,18.263 L 41.09,12.639 L 41.317,7.238 L 41.544,8.127 L 41.771,11.379 L 41.998,14.93 L 42.225,16.636 L 42.452,16.337 L 42.679,15.081 L 42.906,12.713 L 43.133,4.132 L 43.36,3.243 L 43.587,4.354 L 43.814,8.717 L 44.041,18.264 L 44.268,23.444 L 44.495,30.628 L 44.722,16.559 L 44.949,10.822 L 45.176,8.654 L 45.403,9.629 L 45.63,15.366 L 45.857,9.198 L 46.084,3.243 L 46.311,6.164 L 46.538,8.654 L 46.765,26.841 L 46.992,23.702 L 47.219,29.548 L 47.446,37.231 L 47.673,40.37 L 47.9,29.33 L 48.127,18.939 L 48.354,10.603 L 48.581,9.846 L 48.808,13.742 L 49.035,27.815 L 49.262,29.221 L 49.489,33.335 L 49.716,32.469 L 49.943,24.781 L 50.17,13.85 L 50.397,8.004 L 50.624,11.687 L 50.851,20.127 L 51.078,19.37 L 51.305,30.409 L 51.532,42.319 L 51.759,34.491 L 51.986,20.136 L 52.213,8.326 L 52.44,3.242 L 52.667,11.524 L 52.894,18.495 L 53.121,13.905 L 53.348,12.181 L 53.575,13.328 L 53.802,19.646 L 54.029,27.683 L 54.256,31.289 L 54.483,31.865 L 54.71,34.241 L 54.937,34.572 L 55.164,31.288 L 55.391,24.975 L 55.618,15.378 L 55.845,8.901 L 56.072,12.674 L 56.299,24.153 L 56.526,31.945 L 56.753,30.058 L 56.98,26.86 L 57.207,20.792 L 57.434,17.758 L 57.661,10.13 L 57.888,11.854 L 58.115,18.743 L 58.342,21.201 L 58.569,28.422 L 58.796,31.043 L 59.023,33.415 L 59.25,13.137 L 59.477,9.486 L 59.704,9.391 L 59.931,26.589 L 60.158,36.966 L 60.385,35.624 L 60.612,34.567 L 60.839,32.354 L 61.066,31.877 L 61.293,21.977 L 61.52,17.945 L 61.747,14.87 L 61.974,14.099 L 62.201,13.428 L 62.428,21.116 L 62.655,24.091 L 62.882,18.522 L 63.109,11.025 L 63.336,3.242 L 63.563,5.261 L 63.79,8.146 L 64.017,12.277 L 64.244,18.423 L 64.471,15.929 L 64.698,18.233 L 64.925,8.623 L 65.152,9.68 L 65.379,14.873 L 65.606,18.524 L 65.833,27.554 L 66.06,28.325 L 66.287,30.457 L 66.514,11.222 L 66.741,13.408 L 66.968,18.433 L 67.195,33.736 L 67.422,43.9 L 67.649,35.814 L 67.876,35.596 L 68.103,44.554 L 68.33,36.907 L 68.557,38 L 68.784,34.281 L 69.011,34.503 L 69.238,22.153 L 69.465,11.989 L 69.692,3.244 L 69.919,6.197 L 70.146,15.486 L 70.373,8.601 L 70.6,3.68 L 70.827,6.088 L 71.054,8.27 L 71.281,7.834 L 71.508,11.771 L 71.735,10.787 L 71.962,9.037 L 72.189,14.829 L 72.416,15.813 L 72.643,21.169 L 72.87,19.967 L 73.097,26.634 L 73.324,33.954 L 73.551,35.696 L 73.778,12.824 L 74.005,3.245 L 74.232,6.86 L 74.459,28.952 L 74.686,36.771 L 74.913,39.215 L 75.14,39.9 L 75.367,44.199 L 75.594,41.854 L 75.821,38.434 L 76.048,30.611 L 76.275,20.837 L 76.502,17.807 L 76.729,9.893 L 76.956,10.573 L 77.183,9.893 L 77.41,4.224 L 77.637,4.514 L 77.864,13.313 L 78.091,28.267 L 78.318,28.952 L 78.545,29.832 L 78.772,32.177 L 78.999,22.698 L 79.226,19.959 L 79.453,19.569 L 79.68,26.218 L 79.907,33.647 L 80.134,35.892 L 80.361,33.647 L 80.588,34.527 L 80.815,34.563 L 81.042,14.262 L 81.269,3.245 L 81.496,5.191 L 81.723,26.68 L 81.95,36.182 L 82.177,30.458 L 82.404,27.65 L 82.631,36.721 L 82.858,25.165 L 83.085,24.952 L 83.312,24.516 L 83.539,31.106 L 83.766,38.667 L 83.993,33.587 L 84.22,33.914 L 84.447,32.404 L 84.674,24.626 L 84.901,24.517 L 85.128,30.458 L 85.355,39.42 L 85.582,36.721 L 85.809,40.826 L 86.036,34.562 L 86.263,32.077 L 86.49,30.997 L 86.717,31.968 L 86.944,37.261 L 87.171,39.85 L 87.398,41.256 L 87.625,43.093 L 87.852,44.494 L 88.079,36.97 L 88.306,25.341 L 88.533,11.386 L 88.76,10.22 L 88.987,16.039 L 89.162,26.5 L 89.389,31.153 L 89.616,32.314 L 89.843,32.314 L 90.07,27.665 L 90.297,16.037 L 90.524,10.218 L 90.751,10.218 L 90.978,19.525 L 91.205,25.339 L 91.432,25.339 L 91.659,27.666 L 91.886,17.198 L 92.113,12.545 L 92.34,7.896 L 92.567,7.896 L 92.794,16.038 L 93.021,14.872 L 93.248,14.872 L 93.475,14.872 L 93.702,11.385 L 93.929,4.405 L 94.156,3.244 L 94.383,6.732 L 94.61,12.546 L 94.837,17.199 L 95.064,17.199 L 95.291,36.661 L 95.518,24.728 L 95.745,17.567 L 95.972,8.02 L 96.199,10.406 L 96.426,22.344 L 96.653,29.501 L 96.88,31.891 L 97.107,29.501 L 97.334,24.73 L 97.561,8.022 L 97.788,3.246 L 98.015,6.825 L 98.242,23.538 L 98.469,22.345 L 98.696,24.73 L 98.923,27.116 L 99.15,21.147 L 99.377,16.376 L 99.604,11.6 L 99.82,9.21 L 100.047,24.726 L 100.274,23.534 L 100.501,17.565 L 100.728,24.726 L 100.955,15.179 L 101.182,8.017 L 101.409,5.627 L 101.636,8.017 L 101.863,15.179 L 102.09,23.533 L 102.317,24.725 L 102.544,33.478 L 102.771,14.801 L 102.998,5.907 L 103.225,3.24 L 103.452,13.023 L 103.679,15.69 L 103.906,6.796 L 104.133,6.796 L 104.36,13.912 L 104.587,30.807 L 104.814,39.701 L 105.041,43.262 L 105.268,33.479 L 105.495,33.479 L 105.722,33.479 L 105.949,39.702 L 106.176,29.919 L 106.403,13.913 L 106.63,12.135 L 106.857,21.029 L 107.084,23.696 L 107.311,37.035 L 107.539,27.252 L 107.766,25.474 L 107.993,25.474 L 108.22,22.807 L 108.447,16.58 L 108.675,25.474 L 108.902,19.247 L 109.129,27.252 L 109.356,29.03 L 109.583,28.141 L 109.811,48.596 L 110.038,48.596 L 110.265,48.596 L 110.492,48.596 L 110.72,48.596 L 110.947,48.596 L 111.174,48.596 L 111.401,48.596 L 111.628,48.297 L 111.856,48.297 L 112.083,43.168 L 112.31,13.874 L 112.537,4.658 L 112.764,30.624 L 112.992,32.202 L 113.219,14.228 L 113.446,30.837 L 113.673,42.071 L 113.901,43.291 L 114.128,40.266 L 114.355,39.699 L 114.582,42.316 L 114.809,44.865 L 115.037,47.182 L 115.264,47.871 L 115.491,48.102 L 115.718,48.596 L 115.945,48.596 L 116.173,48.596 L 116.4,48.596 L 116.627,48.596 L 116.854,48.596 L 117.082,48.596 L 117.309,48.596 L 117.536,48.596 L 117.763,48.596 L 117.99,48.596 L 118.218,48.596 L 118.445,48.596 L 118.672,48.596 L 118.899,48.596 L 119.126,48.269 L 119.354,48.292 L 119.581,43.756 L 119.808,15.214 L 120.035,8.96 L 120.262,36.898 L 120.49,38.848 L 120.717,24.208 L 120.944,38.027 L 121.171,45.134 L 121.399,45.374 L 121.626,43.193 L 121.853,44.372 L 122.08,45.624 L 122.307,46.862 L 122.535,47.733 L 122.762,47.933 L 122.989,48.141 L 123.216,48.595 L 123.444,48.595 L 123.671,48.595 L 123.898,48.595 L 124.125,48.595 L 124.352,48.595 L 124.58,48.595 L 124.807,48.595 L 125.034,48.595 L 125.261,48.595 L 125.488,48.595 L 125.716,48.595 L 125.943,48.595 L 126.17,48.595 L 126.397,48.595 L 126.624,46.178 L 126.852,47.539 L 127.079,33.855 L 127.306,42.123 L 127.533,43.071 L 127.761,42.291 L 127.988,44.681 L 128.215,42.577 L 128.442,42.949 L 128.669,42.777 L 128.897,44.251 L 129.124,45.008 L 129.351,46.745 L 129.578,47.312 L 129.806,46.405 L 130.033,45.194 L 130.26,44.364 L 130.487,46.029 L 130.714,48.596 L 130.942,48.596 L 131.169,48.596 L 131.396,48.596 L 131.623,48.596 L 131.85,48.596 L 132.078,48.596 L 132.305,48.596 L 132.532,48.596 L 132.759,48.596 L 132.986,48.596 L 133.214,48.596 L 133.441,48.596 L 133.668,48.596 L 133.895,48.596 L 134.123,46.006 L 134.35,3.241 L 134.577,3.241 L 134.804,3.241 L 135.031,3.241 L 135.259,3.241 L 135.486,3.241 L 135.713,3.241 L 135.94,3.89 L 136.168,34.989 L 136.395,40.173 L 136.622,33.044 L 136.849,29.157 L 137.076,44.709 L 137.304,45.357 L 137.531,47.298 L 137.758,47.946 L 137.985,38.226 L 138.212,48.594 L 138.44,48.594 L 138.667,48.594 L 138.894,48.594 L 139.121,48.594 L 139.348,48.594 L 139.576,48.594 L 139.803,7.648 L 140.03,6.7 L 140.257,6.237 L 140.485,4.945 L 140.712,4.237 L 140.939,3.343 L 141.166,4.572 L 141.393,5.062 L 141.621,7.434 L 141.848,19.68 L 142,26.717 L 142.227,24.549 L 142.454,23.928 L 142.682,22.408 L 142.909,21.269 L 143.136,20.022 L 143.363,20.281 L 143.591,21.328 L 143.818,21.469 L 144.045,27.129 L 144.272,27.428 L 144.499,17.645 L 144.727,44.554 L 144.954,35.302 L 145.181,17.106 L 145.408,11.809 L 145.635,5.25 L 145.863,3.241 L 146.09,38.908 L 146.317,23.496 L 146.544,17.772 L 146.772,19.532 L 146.999,20.412 L 147.226,13.808 L 147.453,9.404 L 147.68,14.688 L 147.908,14.248 L 148.135,10.284 L 148.362,11.168 L 148.589,3.68 L 148.817,3.24 L 149.044,6.324 L 149.271,4.56 L 149.498,7.644 L 149.725,5.884 L 149.953,6.324 L 150.18,11.608 L 150.407,16.892 L 150.634,9.404 L 150.861,10.284 L 151.089,14.688 L 151.316,9.404 L 151.543,8.964 L 151.77,12.928 L 151.997,9.404 L 152.225,12.928 L 152.452,20.851 L 152.679,21.295 L 152.906,26.139 L 153.134,38.027 L 153.361,28.14 L 153.588,22.806 L 153.815,25.473 L 154.042,32.589 L 154.27,25.917 L 154.497,25.473 L 154.724,14.801 L 154.951,22.362 L 155.178,28.585 L 155.406,9.468 L 155.633,5.463 L 155.86,18.802 L 156.087,11.246 L 156.315,3.241 L 156.542,7.686 L 156.769,8.575 L 156.996,9.024 L 157.223,10.802 L 157.451,13.469 L 157.678,16.58 L 157.905,9.469 L 158.132,13.025 L 158.359,15.247 L 158.587,7.686 L 158.814,7.686 L 159.041,20.136 L 159.268,14.358 L 159.496,17.914 L 159.723,20.585 L 159.95,24.585 L 160.177,24.141 L 160.404,30.808 L 160.632,12.05 L 160.859,6.766 L 161.086,10.286 L 161.313,19.974 L 161.54,19.974 L 161.768,16.015 L 161.995,12.931 L 162.222,18.655 L 162.449,17.335 L 162.677,7.208 L 162.904,4.564 L 163.131,10.728 L 163.358,7.648 L 163.585,3.244 L 163.813,5.004 L 164.04,13.372 L 164.267,15.132 L 164.494,17.336 L 164.721,24.379 L 164.949,23.059 L 165.176,19.975 L 165.403,23.499 L 165.63,27.903 L 165.858,24.819 L 166.085,20.415 L 166.312,23.939 L 166.539,24.379 L 166.766,24.379 L 166.994,21.739 L 167.221,24.379 L 167.448,23.939 L 167.675,28.343 L 167.902,18.569 L 168.13,48.598 L 168.357,48.598 L 168.584,3.244 L 168.811,48.598 L 169.038,48.598 L 169.266,48.598 L 169.493,44.063 L 169.72,48.598 L 169.947,20.31 L 170.175,7.634 L 170.402,7.634 L 170.629,3.243 L 170.856,4.708 L 171.083,8.119 L 171.311,12.509 L 171.538,6.658 L 171.765,4.218 L 171.992,6.658 L 172.22,9.583 L 172.447,9.093 L 172.674,10.068 L 172.901,10.068 L 173.128,11.533 L 173.356,9.093 L 173.583,11.533 L 173.81,8.118 L 174.037,15.923 L 174.264,24.214 L 174.492,10.558 L 174.719,7.633 L 174.946,12.019 L 175.173,9.583 L 175.401,15.434 L 175.628,9.583 L 175.855,12.508 L 176.082,20.799 L 176.309,19.824 L 176.537,12.998 L 176.764,10.558 L 176.991,27.625"
   stroke-miterlimit="10" /><path
   style="fill:none;stroke:#000000;stroke-width:0.6376;stroke-linecap:square;stroke-miterlimit:10"
   id="path33"
   d="M 15.35,207.337 L 15.669,207.337"
   stroke-miterlimit="10" /><path
   style="fill:none;stroke:#000000;stroke-width:0.6376;stroke-miterlimit:10"
   id="path35"
   d="M 15.35,207.337 L 196.767,207.337 M 15.35,230.015 L 15.35,184.661"
   stroke-miterlimit="10" /><path
   style="fill:none;stroke:#000000;stroke-width:0.6376;stroke-miterlimit:10"
   id="path37"
   d="M 15.35,184.661 L 12.641,184.661"
   stroke-miterlimit="10" /><text
   id="text39"
   x="5.2631998"
   y="209.38921"><tspan
     style="font-size:6.37610006px;font-family:CMR8"
     id="tspan41"
     font-size="6.3761"
     y="209.38921"
     x="5.2631998">0</tspan></text>
<text
   id="text43"
   x="5.2631998"
   y="186.7095"><tspan
     style="font-size:6.37610006px;font-family:CMR8"
     id="tspan45"
     font-size="6.3761"
     y="186.7095"
     x="5.2631998">1</tspan></text>
<path
   style="fill:none;stroke:#000000;stroke-width:0.6376;stroke-miterlimit:10"
   id="path47"
   d="M 15.35,230.015 L 12.641,230.015"
   stroke-miterlimit="10" /><text
   id="text49"
   y="231.731"><tspan
     style="font-size:6.37610006px;font-family:CMSY8"
     id="tspan51"
     font-size="6.3761"
     y="231.731"
     x="0"> </tspan></text>
<text
   id="text53"
   x="5.27"
   y="231.731"><tspan
     style="font-size:6.37610006px;font-family:CMR8"
     id="tspan55"
     font-size="6.3761"
     y="231.731"
     x="5.27">1</tspan></text>
<path
   style="fill:none;stroke:#000000;stroke-width:0.22679999;stroke-miterlimit:10"
   id="path57"
   d="M 37.231,222.735 L 37.458,214.095 L 37.685,202.679 L 37.912,190.892 L 38.139,188.239 L 38.366,191.817 L 38.593,203.85 L 38.82,202.248 L 39.047,198.298 L 39.274,189.041 L 39.501,188.302 L 39.728,195.581 L 39.955,203.354 L 40.182,203.913 L 40.409,206.008 L 40.636,205.827 L 40.863,196.878 L 41.09,187.005 L 41.317,184.66 L 41.544,190.274 L 41.771,198.297 L 41.998,202.307 L 42.225,202.184 L 42.452,199.531 L 42.679,190.769 L 42.906,190.891 L 43.133,190.397 L 43.36,191.879 L 43.587,197.925 L 43.814,199.594 L 44.041,205.64 L 44.268,209.219 L 44.495,219.296 L 44.722,208.425 L 44.949,195.997 L 45.176,185.28 L 45.403,184.659 L 45.63,189.009 L 45.857,193.98 L 46.084,189.476 L 46.311,191.181 L 46.538,197.785 L 46.765,204.929 L 46.992,207.881 L 47.219,208.735 L 47.446,208.349 L 47.673,208.426 L 47.9,205.55 L 48.127,199.727 L 48.354,196.929 L 48.581,197.863 L 48.808,201.9 L 49.035,204.698 L 49.262,208.427 L 49.489,207.805 L 49.716,208.427 L 49.943,204.309 L 50.17,201.978 L 50.397,197.632 L 50.624,196.153 L 50.851,202.598 L 51.078,209.51 L 51.305,211.297 L 51.532,214.558 L 51.759,208.421 L 51.986,195.65 L 52.213,188.879 L 52.44,184.661 L 52.667,189.26 L 52.894,208.295 L 53.121,192.199 L 53.348,187.599 L 53.575,197.31 L 53.802,214.939 L 54.029,219.538 L 54.256,214.427 L 54.483,210.595 L 54.71,217.24 L 54.937,211.874 L 55.164,208.555 L 55.391,208.555 L 55.618,213.281 L 55.845,206.89 L 56.072,202.291 L 56.299,211.489 L 56.526,220.178 L 56.753,216.858 L 56.98,213.92 L 57.207,211.108 L 57.434,207.656 L 57.661,208.423 L 57.888,208.042 L 58.115,212.26 L 58.342,220.306 L 58.569,217.879 L 58.796,214.174 L 59.023,218.115 L 59.25,199.179 L 59.477,185.785 L 59.704,186.008 L 59.931,202.698 L 60.158,210.78 L 60.385,210.408 L 60.612,209.959 L 60.839,206.213 L 61.066,205.692 L 61.293,203.148 L 61.52,201.874 L 61.747,200.228 L 61.974,199.18 L 62.201,202.772 L 62.428,204.568 L 62.655,205.017 L 62.882,193.57 L 63.109,187.284 L 63.336,185.039 L 63.563,191.248 L 63.79,198.433 L 64.017,200.079 L 64.244,197.385 L 64.471,184.663 L 64.698,184.962 L 64.925,191.325 L 65.152,192.672 L 65.379,195.589 L 65.606,199.407 L 65.833,207.34 L 66.06,210.41 L 66.287,218.107 L 66.514,199.48 L 66.741,196.573 L 66.968,198.582 L 67.195,217.971 L 67.422,221.432 L 67.649,223.786 L 67.876,221.432 L 68.103,222.262 L 68.33,225.586 L 68.557,221.5 L 68.784,216.724 L 69.011,210.837 L 69.238,199.412 L 69.465,187.711 L 69.692,185.634 L 69.919,190.686 L 70.146,193.04 L 70.373,187.987 L 70.6,184.663 L 70.827,186.881 L 71.054,195.258 L 71.281,195.67 L 71.508,191.171 L 71.735,187.157 L 71.962,188.541 L 72.189,197.611 L 72.416,201.144 L 72.643,194.98 L 72.87,192.001 L 73.097,195.811 L 73.324,208.342 L 73.551,220.792 L 73.778,203.235 L 74.005,194.649 L 74.232,197.575 L 74.459,217.041 L 74.686,219.205 L 74.913,221.939 L 75.14,221.876 L 75.367,219.522 L 75.594,222.764 L 75.821,220.22 L 76.048,215.449 L 76.275,204.763 L 76.502,196.242 L 76.729,189.116 L 76.956,190.133 L 77.183,192.169 L 77.41,185.806 L 77.637,184.663 L 77.864,193.184 L 78.091,202.283 L 78.318,203.553 L 78.545,196.877 L 78.772,193.634 L 78.999,195.412 L 79.226,201.266 L 79.453,209.09 L 79.68,209.852 L 79.907,206.609 L 80.134,198.019 L 80.361,201.076 L 80.588,212.905 L 80.815,220.556 L 81.042,200.754 L 81.269,184.839 L 81.496,187.316 L 81.723,210.655 L 81.95,217.816 L 82.177,220.556 L 82.404,214.279 L 82.631,211.008 L 82.858,208.355 L 83.085,197.834 L 83.312,193.239 L 83.539,195.184 L 83.766,205.792 L 83.993,205.615 L 84.22,202.876 L 84.447,189.438 L 84.674,184.663 L 84.901,193.239 L 85.128,210.302 L 85.355,214.194 L 85.582,209.241 L 85.809,194.034 L 86.036,194.832 L 86.263,208.27 L 86.49,218.081 L 86.717,223.21 L 86.944,223.918 L 87.171,215.433 L 87.398,210.48 L 87.625,217.197 L 87.852,225.951 L 88.079,224.835 L 88.306,214.467 L 88.533,197.622 L 88.76,189.849 L 88.987,189.849 L 89.214,198.92 L 89.441,206.693 L 89.668,206.693 L 89.895,207.99 L 90.122,189.848 L 90.349,185.961 L 90.576,189.848 L 90.803,201.509 L 91.03,201.509 L 91.257,205.396 L 91.484,202.806 L 91.711,197.621 L 91.938,185.961 L 92.165,184.664 L 92.392,192.437 L 92.619,198.918 L 92.846,205.395 L 93.073,202.805 L 93.3,201.508 L 93.527,193.734 L 93.754,191.144 L 93.981,189.847 L 94.208,191.144 L 94.435,197.621 L 94.662,198.919 L 94.889,198.919 L 95.116,201.509 L 95.343,220.526 L 95.57,211.034 L 95.797,198.375 L 96.024,189.939 L 96.251,188.882 L 96.478,195.213 L 96.705,203.65 L 96.932,202.593 L 97.159,201.54 L 97.386,189.938 L 97.613,187.829 L 97.84,192.048 L 98.067,200.484 L 98.294,200.484 L 98.521,201.541 L 98.748,199.432 L 98.975,193.101 L 99.202,185.722 L 99.429,184.665 L 99.656,190.991 L 99.883,195.214 L 100.11,199.432 L 100.337,199.432 L 100.564,197.324 L 100.791,190.992 L 101.018,188.884 L 101.245,188.884 L 101.472,190.992 L 101.699,194.158 L 101.926,197.324 L 102.153,199.432 L 102.38,201.541 L 102.607,215.791 L 102.834,196.226 L 103.061,188.221 L 103.288,184.665 L 103.515,185.554 L 103.742,192.67 L 103.969,189.109 L 104.196,194.447 L 104.423,204.23 L 104.65,211.341 L 104.877,206.897 L 105.104,214.902 L 105.331,212.231 L 105.558,212.231 L 105.785,206.008 L 106.012,206.897 L 106.239,201.559 L 106.466,203.341 L 106.693,210.452 L 106.92,210.452 L 107.147,209.563 L 107.374,213.124 L 107.602,215.79 L 107.829,224.685 L 108.056,205.119 L 108.283,198.892 L 108.51,192.669 L 108.738,196.225 L 108.965,212.231 L 109.192,217.569 L 109.419,214.013 L 109.646,216.68 L 109.874,230.019 L 110.101,230.019 L 110.328,230.019 L 110.555,230.019 L 110.783,230.019 L 111.01,230.019 L 111.237,229.56 L 111.464,229.488 L 111.691,229.384 L 111.919,228.142 L 112.146,210.577 L 112.373,197.492 L 112.6,187.836 L 112.827,196.326 L 113.055,223.148 L 113.282,217.951 L 113.509,205.125 L 113.736,215.647 L 113.964,218.74 L 114.191,217.012 L 114.418,214.531 L 114.645,221.398 L 114.872,228.319 L 115.1,229.185 L 115.327,230.02 L 115.554,230.02 L 115.781,230.02 L 116.008,230.02 L 116.236,230.02 L 116.463,230.02 L 116.69,230.02 L 116.917,230.02 L 117.145,230.02 L 117.372,230.02 L 117.599,230.02 L 117.826,230.02 L 118.053,230.02 L 118.281,230.02 L 118.508,230.02 L 118.735,229.53 L 118.962,229.448 L 119.189,229.053 L 119.417,227.693 L 119.644,213.579 L 119.871,193.786 L 120.098,191.079 L 120.325,206.771 L 120.553,226.573 L 120.78,222.673 L 121.007,213.457 L 121.234,218.138 L 121.462,218.01 L 121.689,217.13 L 121.916,218.895 L 122.143,225.372 L 122.37,228.9 L 122.598,229.327 L 122.825,230.021 L 123.052,230.021 L 123.279,230.021 L 123.507,230.021 L 123.734,230.021 L 123.961,230.021 L 124.188,230.021 L 124.415,230.021 L 124.643,230.021 L 124.87,230.021 L 125.097,230.021 L 125.324,230.021 L 125.551,230.021 L 125.779,230.021 L 126.006,230.021 L 126.233,228.601 L 126.46,228.963 L 126.687,227.299 L 126.915,218.078 L 127.142,226.546 L 127.369,223.443 L 127.596,224.464 L 127.824,225.448 L 128.051,226.432 L 128.278,226.355 L 128.505,224.396 L 128.732,223.235 L 128.96,222.645 L 129.187,220.585 L 129.414,225.262 L 129.641,225.643 L 129.869,225.502 L 130.096,226.94 L 130.323,230.02 L 130.55,230.02 L 130.777,230.02 L 131.005,230.02 L 131.232,230.02 L 131.459,230.02 L 131.686,230.02 L 131.913,230.02 L 132.141,230.02 L 132.368,230.02 L 132.595,230.02 L 132.822,230.02 L 133.049,230.02 L 133.277,230.02 L 133.504,230.02 L 133.731,217.71 L 133.958,230.02 L 134.186,185.314 L 134.413,184.666 L 134.64,184.666 L 134.867,184.666 L 135.094,217.711 L 135.322,184.666 L 135.549,184.666 L 135.776,184.666 L 136.003,184.666 L 136.231,213.824 L 136.458,229.371 L 136.685,225.484 L 136.912,221.597 L 137.139,213.175 L 137.367,217.062 L 137.594,226.132 L 137.821,230.02 L 138.048,230.02 L 138.275,230.02 L 138.503,230.02 L 138.73,230.02 L 138.957,230.02 L 139.184,230.02 L 139.411,230.02 L 139.639,230.02 L 139.866,184.666 L 140.093,184.666 L 140.32,184.666 L 140.548,184.666 L 140.775,184.666 L 141.002,184.666 L 141.229,184.666 L 141.456,184.666 L 141.684,187.11 L 141.911,199.242 L 142.138,198.73 L 142.365,197.301 L 142.592,197.745 L 142.82,197.627 L 143.047,198.915 L 143.274,200.684 L 143.501,201.387 L 143.729,204.222 L 143.956,203.51 L 144.183,210.131 L 144.41,193.735 L 144.637,196.134 L 144.865,206.157 L 145.092,211.368 L 145.319,198.093 L 145.546,188.877 L 145.773,185.839 L 146.001,214.521 L 146.228,198.892 L 146.455,189.109 L 146.682,186.442 L 146.91,190.891 L 147.137,190.891 L 147.364,189.109 L 147.591,189.998 L 147.818,190.892 L 148.046,186.443 L 148.273,185.554 L 148.5,186.443 L 148.727,187.333 L 148.955,184.666 L 149.182,184.666 L 149.409,185.555 L 149.636,189.999 L 149.863,197.115 L 150.091,206.01 L 150.318,209.566 L 150.545,209.566 L 150.772,210.455 L 150.999,211.344 L 151.227,210.455 L 151.454,212.233 L 151.681,209.566 L 151.908,214.015 L 152.135,214.015 L 152.363,213.126 L 152.59,215.792 L 152.817,219.349 L 153.044,218.459 L 153.272,223.793 L 153.499,206.849 L 153.726,187.646 L 153.953,185.991 L 154.18,197.248 L 154.408,195.593 L 154.635,187.978 L 154.862,192.614 L 155.089,198.242 L 155.316,189.303 L 155.544,184.668 L 155.771,192.282 L 155.998,194.6 L 156.225,188.971 L 156.453,186.323 L 156.68,188.309 L 156.907,192.614 L 157.134,195.593 L 157.361,207.181 L 157.589,208.831 L 157.816,214.129 L 158.043,208.169 L 158.27,209.162 L 158.497,210.487 L 158.725,213.135 L 158.952,209.161 L 159.179,209.493 L 159.406,211.81 L 159.634,211.81 L 159.861,212.141 L 160.088,212.141 L 160.315,210.817 L 160.542,216.445 L 160.77,204.622 L 160.997,188.748 L 161.224,186.026 L 161.451,198.272 L 161.678,193.736 L 161.906,187.84 L 162.133,194.643 L 162.36,196.911 L 162.587,191.923 L 162.815,184.666 L 163.042,192.829 L 163.269,195.551 L 163.496,190.109 L 163.723,189.655 L 163.951,192.83 L 164.178,195.099 L 164.405,202.809 L 164.632,213.694 L 164.859,209.612 L 165.087,213.241 L 165.314,213.241 L 165.541,215.054 L 165.768,214.148 L 165.996,215.054 L 166.223,214.601 L 166.45,216.415 L 166.677,214.147 L 166.904,215.507 L 167.132,220.949 L 167.359,218.227 L 167.586,220.949 L 167.813,226.845 L 168.04,188.815 L 168.268,230.02 L 168.495,230.02 L 168.722,184.666 L 168.949,230.02 L 169.176,230.02 L 169.404,230.02 L 169.631,226.242 L 169.858,230.02 L 170.085,206.335 L 170.313,190.207 L 170.54,191.214 L 170.767,190.207 L 170.994,191.214 L 171.221,194.239 L 171.449,202.302 L 171.676,196.76 L 171.903,193.232 L 172.13,193.735 L 172.358,199.278 L 172.585,184.665 L 172.812,195.749 L 173.039,200.285 L 173.266,196.761 L 173.494,199.279 L 173.721,202.807 L 173.948,196.761 L 174.175,200.793 L 174.402,204.316 L 174.63,198.774 L 174.857,199.781 L 175.084,202.302 L 175.311,199.278 L 175.539,201.296 L 175.766,205.832 L 175.993,203.813 L 176.22,204.316 L 176.447,205.832 L 176.675,199.278 L 176.902,208.852 L 177.129,213.89"
   stroke-miterlimit="10" /><text
   id="text59"
   x="0.9429"
   y="107.0991"
   style="font-family:Monospace;font-weight:normal;font-style:normal;font-stretch:normal;font-variant:normal;font-size:7.00000021;text-anchor:start;text-align:start;writing-mode:lr;line-height:125%"
   sodipodi:linespacing="125%"><tspan
     style="font-size:7.00000021;font-family:Monospace;font-weight:normal;font-style:normal;font-stretch:normal;font-variant:normal;text-anchor:start;text-align:start;writing-mode:lr;line-height:125%"
     id="tspan61"
     font-size="6.3761"
     y="107.0991"
     x="0.9429">SSEMSBVFIHIMBXBMFMLFTYVMMSMTBZBTMMGTZXWTBBWICDGGG</tspan></text>
<text
   id="text63"
   x="0.9429"
   y="117.7983"
   style="font-family:Monospace;font-weight:normal;font-style:normal;font-stretch:normal;font-variant:normal;font-size:7.00000021;text-anchor:start;text-align:start;writing-mode:lr;line-height:125%"
   sodipodi:linespacing="125%"><tspan
     style="font-size:7.00000021;font-family:Monospace;font-weight:normal;font-style:normal;font-stretch:normal;font-variant:normal;text-anchor:start;text-align:start;writing-mode:lr;line-height:125%"
     id="tspan65"
     font-size="6.3761"
     y="117.7983"
     x="0.9429">:...:.......:...............:..:..::.:..:..:.....</tspan></text>
<text
   id="text67"
   x="0.9429"
   y="129.39751"
   style="font-family:Monospace;font-weight:normal;font-style:normal;font-stretch:normal;font-variant:normal;font-size:7.00000021;text-anchor:start;text-align:start;writing-mode:lr;line-height:125%"
   sodipodi:linespacing="125%"><tspan
     style="font-size:7.00000021;font-family:Monospace;font-weight:normal;font-style:normal;font-stretch:normal;font-variant:normal;text-anchor:start;text-align:start;writing-mode:lr;line-height:125%"
     id="tspan69"
     font-size="6.3761"
     y="129.39751"
     x="0.9429">SPQISVBWFFPVBYPPPSYZXVWSSTVBBVWTSPGTBXXYBWFIKGIIM</tspan></text>
<path
   style="fill:none;stroke:#000000;stroke-width:0.6376;stroke-linecap:round;stroke-miterlimit:10;stroke-dasharray:0, 3.0126;stroke-dashoffset:-0.3188"
   id="path71"
   d="M 82.58,184.656 L 4.344,132.499"
   stroke-miterlimit="10" /><path
   style="fill:none;stroke:#000000;stroke-width:0.6376;stroke-linecap:round;stroke-miterlimit:10;stroke-dasharray:0, 3.0474;stroke-dashoffset:-0.3188"
   id="path73"
   d="M 91.65,184.656 L 205.87252,133.6458"
   stroke-miterlimit="10"
   sodipodi:nodetypes="cc" /><path
   style="fill:none;stroke:#000000;stroke-width:0.6376;stroke-linecap:round;stroke-miterlimit:10;stroke-dasharray:0, 3.1485;stroke-dashoffset:-0.3188"
   id="path75"
   d="M 91.65,184.656 L 91.65,207.334 M 87.115,184.656 L 87.115,207.334"
   stroke-miterlimit="10" /><path
   style="fill:none;stroke:#000000;stroke-width:0.6376;stroke-linecap:round;stroke-miterlimit:10;stroke-dasharray:0, 3.0126;stroke-dashoffset:-0.3188"
   id="path77"
   d="M 82.58,48.593 L 4.344,100.75"
   stroke-miterlimit="10" /><path
   style="fill:none;stroke:#000000;stroke-width:0.6376;stroke-linecap:round;stroke-miterlimit:10;stroke-dasharray:0, 3.0474;stroke-dashoffset:-0.3188"
   id="path79"
   d="M 91.65,48.593 L 205.30012,99.603197"
   stroke-miterlimit="10"
   sodipodi:nodetypes="cc" /><path
   style="fill:none;stroke:#000000;stroke-width:0.6376;stroke-linecap:round;stroke-miterlimit:10;stroke-dasharray:0, 3.1485;stroke-dashoffset:-0.3188"
   id="path81"
   d="M 82.58,48.593 L 82.58,25.916 M 91.65,48.593 L 91.65,25.916"
   stroke-miterlimit="10" />
<text
   xml:space="preserve"
   style="font-size:8.00000024;font-style:normal;font-weight:normal;writing-mode:lr;text-anchor:start;fill:#000000;fill-opacity:1;stroke:none;stroke-width:1pt;stroke-linecap:butt;stroke-linejoin:miter;stroke-opacity:1;font-family:Verdana;font-stretch:normal;font-variant:normal;text-align:start;line-height:125%"
   x="176.03433"
   y="67.6119"
   id="text1471"
   sodipodi:linespacing="125%"><tspan
     sodipodi:role="line"
     id="tspan1473"
     x="176.03433"
     y="67.6119">Speaker 1</tspan></text>
<text
   sodipodi:linespacing="125%"
   id="text1475"
   y="169.65912"
   x="176.03433"
   style="font-size:8.00000024;font-style:normal;font-variant:normal;font-weight:normal;font-stretch:normal;text-align:start;line-height:125%;writing-mode:lr;text-anchor:start;fill:#000000;fill-opacity:1;stroke:none;stroke-width:1pt;stroke-linecap:butt;stroke-linejoin:miter;stroke-opacity:1;font-family:Verdana"
   xml:space="preserve"><tspan
     sodipodi:role="line"
     id="tspan1479"
     x="176.03433"
     y="169.65912">Speaker 2</tspan></text>
</svg>